<svg width="42" height="42" viewBox="0 0 42 42" fill="none" xmlns="http://www.w3.org/2000/svg">
<g clip-path="url(#clip0_1_31)">
<path d="M41.7978 20.681C41.7978 9.28651 32.5607 0.0494385 21.1662 0.0494385C9.77171 0.0494385 0.534637 9.28651 0.534637 20.681C0.534637 32.0755 9.77171 41.3126 21.1662 41.3126C32.5607 41.3126 41.7978 32.0755 41.7978 20.681Z" fill="#CFF47F"/>
<path d="M18.9557 19.9442C20.5835 19.9442 21.9031 18.6246 21.9031 16.9968C21.9031 15.369 20.5835 14.0494 18.9557 14.0494C17.3279 14.0494 16.0083 15.369 16.0083 16.9968C16.0083 18.6246 17.3279 19.9442 18.9557 19.9442Z" stroke="#220E5B" stroke-width="1.8" stroke-linecap="round" stroke-linejoin="round"/>
<path d="M14.5347 27.3127V25.839C14.5347 25.0573 14.8452 24.3077 15.3979 23.7549C15.9506 23.2022 16.7003 22.8916 17.482 22.8916H20.4294C21.2111 22.8916 21.9608 23.2022 22.5135 23.7549C23.0663 24.3077 23.3768 25.0573 23.3768 25.839V27.3127" stroke="#220E5B" stroke-width="1.8" stroke-linecap="round" stroke-linejoin="round"/>
<path d="M24.1136 19.9442H28.5346M26.3241 17.7336V22.1547" stroke="#220E5B" stroke-width="1.8" stroke-linecap="round" stroke-linejoin="round"/>
</g>
<defs>
<clipPath id="clip0_1_31">
<rect width="42" height="42" fill="white"/>
</clipPath>
</defs>
</svg>
