<svg width="60" height="60" viewBox="0 0 60 60" fill="none" xmlns="http://www.w3.org/2000/svg">
<g clip-path="url(#clip0_1_57)">
<path d="M30 60C46.5685 60 60 46.5685 60 30C60 13.4315 46.5685 0 30 0C13.4315 0 0 13.4315 0 30C0 46.5685 13.4315 60 30 60Z" fill="#F1FFC7"/>
<path d="M18.0883 27.353H41.9118M23.3824 33.9706H24.7059M30 33.9706H31.3236M22.0588 39.2648H37.9412C38.9943 39.2648 40.0042 38.8464 40.7488 38.1018C41.4935 37.3572 41.9118 36.3473 41.9118 35.2942V24.7059C41.9118 23.6529 41.4935 22.6429 40.7488 21.8983C40.0042 21.1537 38.9943 20.7354 37.9412 20.7354H22.0588C21.0058 20.7354 19.9958 21.1537 19.2512 21.8983C18.5066 22.6429 18.0883 23.6529 18.0883 24.7059V35.2942C18.0883 36.3473 18.5066 37.3572 19.2512 38.1018C19.9958 38.8464 21.0058 39.2648 22.0588 39.2648Z" stroke="#220E5B" stroke-width="3" stroke-linecap="round" stroke-linejoin="round"/>
</g>
<defs>
<clipPath id="clip0_1_57">
<rect width="60" height="60" fill="white"/>
</clipPath>
</defs>
</svg>
