<svg width="60" height="60" viewBox="0 0 60 60" fill="none" xmlns="http://www.w3.org/2000/svg">
<g clip-path="url(#clip0_1_60)">
<path d="M30 60C46.5685 60 60 46.5685 60 30C60 13.4315 46.5685 0 30 0C13.4315 0 0 13.4315 0 30C0 46.5685 13.4315 60 30 60Z" fill="#F1FFC7"/>
<path d="M18.5416 24.4118C18.8409 23.6892 19.2797 23.0326 19.8328 22.4795C20.3858 21.9265 21.0424 21.4878 21.7649 21.1885C22.4876 20.8892 23.262 20.7351 24.0442 20.7351C24.8263 20.7351 25.6008 20.8892 26.3234 21.1885C27.046 21.4878 27.7026 21.9265 28.2557 22.4795L30.0001 24.2239L31.7445 22.4795C32.8614 21.3626 34.3763 20.7351 35.956 20.7351C37.5356 20.7351 39.0505 21.3626 40.1675 22.4795C41.2843 23.5965 41.9119 25.1114 41.9119 26.691C41.9119 28.2707 41.2843 29.7856 40.1675 30.9025L30.0001 41.0698L19.8328 30.9025C19.2797 30.3494 18.8409 29.6928 18.5416 28.9703C18.2423 28.2476 18.0883 27.4732 18.0883 26.691C18.0883 25.9089 18.2423 25.1344 18.5416 24.4118Z" stroke="#220E5B" stroke-width="3" stroke-linecap="round" stroke-linejoin="round"/>
</g>
<defs>
<clipPath id="clip0_1_60">
<rect width="60" height="60" fill="white"/>
</clipPath>
</defs>
</svg>
