<svg width="60" height="60" viewBox="0 0 60 60" fill="none" xmlns="http://www.w3.org/2000/svg">
<g clip-path="url(#clip0_1_66)">
<path d="M30 60C46.5685 60 60 46.5685 60 30C60 13.4315 46.5685 0 30 0C13.4315 0 0 13.4315 0 30C0 46.5685 13.4315 60 30 60Z" fill="#F1FFC7"/>
<path d="M26.0294 30L28.6765 32.6471L33.9706 27.353M41.4062 22.0377C37.2214 22.2599 33.1192 20.8129 30 18.0142C26.8808 20.8129 22.7788 22.2599 18.5938 22.0377C18.2571 23.3415 18.0872 24.6828 18.0883 26.0295C18.0883 33.4293 23.1494 39.6486 30 41.4115C36.8506 39.6486 41.9118 33.4306 41.9118 26.0295C41.9118 24.6503 41.7358 23.3136 41.4062 22.0377Z" stroke="#220E5B" stroke-width="3" stroke-linecap="round" stroke-linejoin="round"/>
</g>
<defs>
<clipPath id="clip0_1_66">
<rect width="60" height="60" fill="white"/>
</clipPath>
</defs>
</svg>
